Coordinates
version=1
nRows=10
nColumns=40
inDegrees=yes

Units are S.I. units (second, meters, Newtons, ...)
Angles are in degrees.

endheader
time	pelvis_tilt	pelvis_list	pelvis_rotation	pelvis_tx	pelvis_ty	pelvis_tz	hip_flexion_r	hip_adduction_r	hip_rotation_r	knee_angle_r	knee_angle_r_beta	ankle_angle_r	subtalar_angle_r	mtp_angle_r	hip_flexion_l	hip_adduction_l	hip_rotation_l	knee_angle_l	knee_angle_l_beta	ankle_angle_l	subtalar_angle_l	mtp_angle_l	lumbar_extension	lumbar_bending	lumbar_rotation	arm_flex_r	arm_add_r	arm_rot_r	elbow_flex_r	pro_sup_r	wrist_flex_r	wrist_dev_r	arm_flex_l	arm_add_l	arm_rot_l	elbow_flex_l	pro_sup_l	wrist_flex_l	wrist_dev_l
      3.99000000	     -6.05156691	     -2.71428023	     -5.88821860	      0.99671998	      0.91706555	      0.42955858	     28.19848870	     -3.93979501	     -3.75537158	     27.27102575	     27.27102575	      9.44470351	     -2.10790091	      1.14203820	      6.45650736	     -3.71087560	     -4.86901674	     20.98966351	     20.98966351	     21.00648233	    -15.69994773	      4.58834776	    -10.38580151	      6.44655442	      2.05229699	    -13.12195273	    -10.44287386	     -9.49513743	     36.54216801	     46.42358827	      0.00000000	      0.00000000	     27.20192827	    -17.23263509	     -3.09236873	     72.56197037	     46.60777086	      0.00000000	      0.00000000
      4.00885714	     -6.02596331	     -2.65479475	     -6.08867605	      0.99773256	      0.91575272	      0.43536649	     28.01863341	     -3.69224452	     -4.09755846	     26.65932127	     26.65932127	      9.46777942	     -0.98286913	      1.11739181	      5.65404423	     -4.02689564	     -5.28269505	     20.56384581	     20.56384581	     21.07912079	    -15.38120015	      3.71300061	    -10.37870029	      6.35665640	      1.92872726	    -12.61857538	    -10.35171970	     -8.62451433	     37.39863040	     46.30890009	      0.00000000	      0.00000000	     27.53255404	    -17.31237196	     -4.98381692	     75.86492479	     46.86563145	      0.00000000	      0.00000000
      4.02771429	     -6.00719202	     -2.52722289	     -6.29522634	      0.99901088	      0.91418324	      0.44132691	     28.02156423	     -3.48306590	     -4.29858312	     26.82944106	     26.82944106	      9.58111200	     -0.43871226	      0.67552930	      4.94144795	     -4.27254576	     -5.65984860	     20.33578422	     20.33578422	     21.36872554	    -15.09404682	      3.41111311	    -10.30723494	      6.19919981	      2.47818982	    -12.20308472	    -10.19473633	     -8.32196496	     37.59262210	     46.27627443	      0.00000000	      0.00000000	     28.47327176	    -16.97525855	     -5.78289113	     78.03331595	     46.98515434	      0.00000000	      0.00000000
      4.04657143	     -5.96209603	     -2.47429323	     -6.44473757	      1.00049454	      0.91260116	      0.44747553	     28.00841114	     -3.14300279	     -4.29877493	     27.42192014	     27.42192014	      9.55689504	     -0.61103509	     -0.49268287	      4.33846684	     -4.64398911	     -6.03351896	     20.40165500	     20.40165500	     21.61568289	    -14.78476453	      2.82434451	    -10.29866483	      6.14417446	      2.21489689	    -11.30474583	    -10.15349046	     -8.00860197	     38.04942219	     46.22608897	      0.00000000	      0.00000000	     28.37097208	    -16.93443212	     -7.89482219	     81.48417922	     47.23062378	      0.00000000	      0.00000000
      4.06542857	     -5.89870709	     -2.32517708	     -6.57081272	      1.00215596	      0.91115106	      0.45370645	     28.09044032	     -2.89120957	     -4.18037767	     28.52015763	     28.52015763	      9.91343719	     -1.04879993	     -1.04022559	      3.72933782	     -4.87228520	     -6.22784639	     20.47147495	     20.47147495	     21.82955770	    -14.74550992	      2.70180547	    -10.20257066	      5.98409799	      2.57027799	    -10.62257866	    -10.14501561	     -7.89147844	     38.10636355	     46.21802016	      0.00000000	      0.00000000	     29.16184736	    -16.72514348	     -8.40096367	     82.66746697	     47.29842776	      0.00000000	      0.00000000
      4.08428571	     -5.94051953	     -2.36980519	     -6.62579866	      1.00406340	      0.91005616	      0.45998347	     28.03081864	     -2.44485042	     -4.19533890	     29.43198826	     29.43198826	     10.31734662	     -1.38426585	     -1.41681676	      3.18716412	     -5.32505924	     -6.32766452	     20.48684258	     20.48684258	     21.90139876	    -14.76403721	      2.70507995	     -9.95538162	      6.14135093	      2.84752013	     -9.84632643	    -10.22921570	     -7.87975678	     38.28764556	     46.21460013	      0.00000000	      0.00000000	     29.71282047	    -16.52921342	     -8.63522077	     83.35609350	     47.33191838	      0.00000000	      0.00000000
      4.10314286	     -5.82204065	     -2.29478748	     -6.70445975	      1.00602762	      0.90927947	      0.46648078	     27.83509581	     -1.92061307	     -3.56895247	     30.43120597	     30.43120597	     10.40484378	     -3.07205321	     -2.41364337	      2.64288905	     -5.77846891	     -6.94295897	     20.84470211	     20.84470211	     22.01315254	    -14.01708398	      2.17090195	    -10.07427898	      5.96587470	      2.14630785	     -8.28942479	    -10.26512059	     -7.87677283	     37.60857639	     46.23287234	      0.00000000	      0.00000000	     28.46643810	    -16.01781968	    -12.20764743	     88.05659061	     47.68071055	      0.00000000	      0.00000000
      4.12200000	     -5.80004193	     -2.20627145	     -6.66346256	      1.00798674	      0.90890944	      0.47262125	     27.62565628	     -1.63372123	     -3.54998357	     31.31963394	     31.31963394	     10.85942996	     -3.58261231	     -2.69489630	      2.13227177	     -6.08519765	     -6.99553988	     20.95758198	     20.95758198	     21.86597534	    -13.99244807	      2.22700590	     -9.94187595	      5.92407139	      2.39775743	     -7.51285656	    -10.48562837	     -7.84269286	     37.61270706	     46.23444919	      0.00000000	      0.00000000	     28.66823542	    -15.64650276	    -12.35223762	     88.59943802	     47.70533472	      0.00000000	      0.00000000
      4.14085714	     -5.84074109	     -2.16130402	     -6.60150856	      1.00992854	      0.90897123	      0.47875936	     27.27500829	     -1.27752937	     -3.50111633	     31.82338918	     31.82338918	     11.31132234	     -3.96102727	     -2.85915848	      1.72438955	     -6.46660846	     -7.03947212	     21.11844718	     21.11844718	     21.54942473	    -13.92829439	      2.32822881	     -9.67978773	      5.90544630	      2.56709608	     -6.80091749	    -10.71226020	     -7.85920970	     37.69562102	     46.23645186	      0.00000000	      0.00000000	     28.68912338	    -15.23261218	    -12.41833724	     88.99757003	     47.71902111	      0.00000000	      0.00000000
      4.15971429	     -5.83934330	     -2.20087082	     -6.50824021	      1.01169752	      0.90946037	      0.48494139	     26.78807157	     -0.68696904	     -3.10947468	     32.13286661	     32.13286661	     11.83838824	     -5.07887256	     -1.96694785	      1.40997089	     -7.03746579	     -7.36770029	     21.51224936	     21.51224936	     21.11137395	    -13.44692323	      1.80211649	     -9.62800179	      5.87141965	      1.54451973	     -4.56189805	    -10.80440144	     -7.53758913	     35.53846207	     46.29173185	      0.00000000	      0.00000000	     27.09583109	    -14.85166919	    -15.27424896	     92.28309449	     48.00406892	      0.00000000	      0.00000000
